<?xml version="1.0" encoding="iso-8859-1"?>
<!-- Generator: Adobe Illustrator 19.0.0, SVG Export Plug-In . SVG Version: 6.00 Build 0)  -->
<svg version="1.1" id="Layer_1" xmlns="http://www.w3.org/2000/svg" xmlns:xlink="http://www.w3.org/1999/xlink" x="0px" y="0px"
	 viewBox="0 0 512 512" style="enable-background:new 0 0 512 512;" xml:space="preserve">
<path style="fill:#E2E2E2;" d="M256,32C132.48,32,32,132.48,32,256s100.48,224,224,224s224-100.48,224-224S379.52,32,256,32z
	 M350.96,369.872l-196.512-41.296l6.592-31.312l196.496,41.296L350.96,369.872z M409.92,173.248h-28.544
	c6.528,7.744,10.624,17.632,10.624,28.56c0,24.608-19.952,44.56-44.56,44.56s-44.56-19.952-44.56-44.56
	c0-10.928,4.08-20.8,10.624-28.56h-26.672h-6.24h-79.584c6.528,7.744,10.624,17.632,10.624,28.56c0,24.608-19.952,44.56-44.56,44.56
	s-44.56-19.952-44.56-44.56c0-10.928,4.08-20.8,10.624-28.56H102.4v-32h178.192h6.24H409.92L409.92,173.248L409.92,173.248z"/>
<g>
	<path style="fill:#333333;" d="M256,0C114.608,0,0,114.608,0,256s114.608,256,256,256s256-114.608,256-256S397.392,0,256,0z
		 M256,480C132.48,480,32,379.52,32,256S132.48,32,256,32s224,100.48,224,224S379.52,480,256,480z"/>
	<path style="fill:#333333;" d="M280.592,141.248H102.4v32h30.736c-6.528,7.744-10.624,17.632-10.624,28.56
		c0,24.608,19.952,44.56,44.56,44.56s44.56-19.952,44.56-44.56c0-10.928-4.08-20.8-10.624-28.56h79.584h6.24h26.672
		c-6.528,7.744-10.624,17.632-10.624,28.56c0,24.608,19.952,44.56,44.56,44.56S392,226.416,392,201.808
		c0-10.928-4.08-20.8-10.624-28.56h28.544v-32H286.832H280.592z"/>
	
		<rect x="240.001" y="233.215" transform="matrix(-0.2057 0.9786 -0.9786 -0.2057 635.1399 151.7125)" style="fill:#333333;" width="32" height="200.797"/>
</g>
<g>
</g>
<g>
</g>
<g>
</g>
<g>
</g>
<g>
</g>
<g>
</g>
<g>
</g>
<g>
</g>
<g>
</g>
<g>
</g>
<g>
</g>
<g>
</g>
<g>
</g>
<g>
</g>
<g>
</g>
</svg>
