<svg height="511pt" viewBox="0 0 511 511.99961" width="511pt" xmlns="http://www.w3.org/2000/svg"><path d="m175.804688 246.980469s-89.917969-38.699219-164.238282 64.945312c-7.382812 10.292969-2.632812 24.800781 9.40625 28.730469 14.222656 4.640625 29.875 9.441406 29.875 9.441406zm0 0" fill="#fdcb89"/><path d="m265.570312 336.757812s38.6875 89.941407-64.9375 164.277344c-10.289062 7.382813-24.792968 2.632813-28.722656-9.414062-4.636718-14.222656-9.4375-29.878906-9.4375-29.878906zm0 0" fill="#fdcb89"/><path d="m277.644531 275.300781-40.390625-40.398437 219.015625-219.058594c11.152344-11.15625 29.234375-11.15625 40.390625 0 11.152344 11.15625 11.152344 29.242188 0 40.398438zm0 0" fill="#dd6642"/><path d="m333.492188 219.441406c-3.898438-7.382812-8.457032-14.519531-13.464844-21.21875-7.769532-10.394531-9.328125-24.679687-8.609375-37.5l-74.164063 74.179688 40.390625 40.398437zm0 0" fill="#b24e2f"/><path d="m230.851562 430.03125c41.945313-57.609375 35.46875-115.5625 35.46875-115.5625l-68.226562-68.242188s-57.941406-6.476562-115.542969 35.476563c-38.574219 28.101563-61.484375 72.539063-72.40625 98.824219-4.695312 11.289062 1.554688 24.132812 13.332031 27.417968l16.53125 4.609376c4.707032 1.3125 8.292969 5.136718 9.300782 9.917968l4.367187 20.71875c1.664063 7.890625 7.828125 14.058594 15.71875 15.722656l20.714844 4.367188c4.78125 1.011719 8.605469 4.597656 9.917969 9.304688l4.609375 16.53125c3.28125 11.78125 16.121093 18.03125 27.414062 13.339843 26.277344-10.925781 70.707031-33.839843 98.800781-72.425781zm0 0" fill="#ffe0b7"/><path d="m77.90625 354.445312c41.164062-65.570312 122.117188-99.484374 125.542969-100.894531 7.652343-3.152343 16.585937.425781 19.5625 8.148438 5.929687 15.378906-8.136719 19.558593-8.136719 19.558593-.75.3125-75.605469 31.800782-111.589844 89.125-4.402344 7.007813-13.75 9.277344-20.65625 4.722657-9.339844-6.160157-8.507812-14.628907-4.722656-20.660157zm0 0" fill="#fdcb89"/><path d="m158.367188 434.4375c65.554687-41.171875 99.460937-122.144531 100.875-125.570312 3.152343-7.652344-.703126-15.953126-8.148438-19.5625-13.839844-6.710938-19.558594 8.136718-19.558594 8.136718-.308594.75-31.792968 75.621094-89.101562 111.613282-7.011719 4.398437-9.28125 13.75-4.722656 20.660156 6.15625 9.339844 14.625 8.511718 20.65625 4.722656zm0 0" fill="#fdcb89"/><path d="m300.882812 244.128906 2.75-19.699218c1.261719-9.042969-6.476562-16.78125-15.519531-15.519532l-19.695312 2.746094c-4.9375.691406-9.632813-2.339844-11.042969-7.121094l-3.894531-13.222656c-2.558594-8.679688-14.152344-10.296875-18.984375-2.648438l-36.402344 57.5625 68.226562 68.242188 57.554688-36.410156c7.644531-4.835938 6.027344-16.429688-2.648438-18.988282l-13.222656-3.898437c-4.777344-1.40625-7.808594-6.105469-7.121094-11.042969zm0 0" fill="#ffe0b7"/><path d="m250.933594 332.761719-72.152344-72.164063c-7.777344-7.777344-7.777344-20.390625 0-28.171875 7.777344-7.777343 20.386719-7.777343 28.164062 0l72.152344 72.164063c7.777344 7.78125 7.777344 20.394531 0 28.171875-7.777344 7.78125-20.386718 7.78125-28.164062 0zm0 0" fill="#e7896e"/><path d="m212.527344 266.179688c7.78125-7.777344 20.390625-7.777344 28.167968 0l-33.75-33.753907c-7.777343-7.777343-20.386718-7.78125-28.164062 0-7.78125 7.777344-7.78125 20.394531 0 28.171875l33.746094 33.753906c-7.777344-7.777343-7.777344-20.390624 0-28.171874zm0 0" fill="#dd6642"/><path d="m174.011719 59.554688 4.875 8.914062c4.863281 8.894531 12.171875 16.207031 21.0625 21.070312l8.914062 4.875c9.121094 4.988282 9.121094 18.09375 0 23.082032l-8.914062 4.875c-8.890625 4.863281-16.199219 12.175781-21.0625 21.066406l-4.875 8.917969c-4.988281 9.121093-18.089844 9.121093-23.078125 0l-4.875-8.917969c-4.859375-8.890625-12.171875-16.203125-21.0625-21.066406l-8.914063-4.875c-9.121093-4.988282-9.121093-18.09375 0-23.082032l8.914063-4.875c8.890625-4.863281 16.199218-12.175781 21.0625-21.070312l4.875-8.914062c4.988281-9.121094 18.089844-9.121094 23.078125 0zm0 0" fill="#f9ee80"/><path d="m423.480469 286.671875 2.96875 5.433594c2.964843 5.417969 7.417969 9.871093 12.835937 12.835937l5.429688 2.96875c5.558594 3.042969 5.558594 11.027344 0 14.066406l-5.429688 2.972657c-5.417968 2.960937-9.871094 7.417969-12.835937 12.835937l-2.96875 5.429688c-3.039063 5.5625-11.023438 5.5625-14.0625 0l-2.972657-5.429688c-2.960937-5.417968-7.414062-9.875-12.832031-12.835937l-5.433593-2.972657c-5.558594-3.039062-5.558594-11.023437 0-14.066406l5.433593-2.96875c5.414063-2.964844 9.871094-7.417968 12.832031-12.835937l2.972657-5.433594c3.039062-5.558594 11.023437-5.558594 14.0625 0zm0 0" fill="#f9ee80"/><path d="m275.773438 343.882812c3.132812-1.332031 6.070312-3.269531 8.621093-5.820312 8.070313-8.074219 10.042969-19.96875 5.921875-29.910156l37.5625-23.757813c6.054688-3.832031 9.199219-10.621093 8.210938-17.71875-.992188-7.097656-5.875-12.765625-12.75-14.789062l-9.027344-2.664063 127.632812-127.65625c2.925782-2.929687 2.925782-7.671875 0-10.597656-2.925781-2.929688-7.667968-2.925781-10.59375 0l-121.242187 121.265625.941406-6.769531c.929688-6.65625-1.261719-13.203125-6.015625-17.957032-4.753906-4.757812-11.300781-6.949218-17.957031-6.019531l-6.765625.941407 181.253906-181.289063c8.214844-8.214844 21.578125-8.214844 29.792969 0 8.214844 8.21875 8.214844 21.585937 0 29.804687l-37.863281 37.871094c-2.925782 2.925782-2.925782 7.667969 0 10.597656 2.925781 2.925782 7.667968 2.925782 10.59375 0l37.867187-37.875c14.054688-14.058593 14.054688-36.933593 0-50.996093-14.058593-14.058594-36.929687-14.058594-50.988281 0l-187.640625 187.683593-2.664063-9.035156c-2.027343-6.875-7.691406-11.757812-14.789062-12.75-7.09375-.988281-13.882812 2.160156-17.710938 8.214844l-23.476562 37.125c-10.1875-4.859375-22.777344-3.082031-31.203125 5.34375-2.738281 2.738281-4.769531 5.917969-6.105469 9.308594-16.210937-4.175782-46.839844-8.367188-82.023437 5.257812-3.859375 1.496094-5.917969 5.894532-4.28125 9.695313 1.816406 4.222656 6.835937 5.386719 9.6875 4.28125 15.78125-6.113281 30.488281-8.203125 43.035156-8.308594-17.304687 5.527344-36.496094 14.335937-55.652344 28.289063-22.5 16.386718-39.824219 38.144531-52.605469 58.609374-4.132812.464844-15.605468-7.414062-7.886718-17.964843 14.234375-19.457031 29.675781-35.265625 46.445312-46.589844 3.429688-2.316406 4.332032-6.972656 2.015625-10.402344-2.3125-3.433593-6.96875-4.332031-10.398437-2.019531-18.246094 12.324219-35.148438 29.238281-50.238282 50.277344-4.925781 6.871094-6.328124 15.449218-3.609374 23.453125 3.503906 10.300781 12.253906 15.121093 15.917968 16.453125-6.320312 11.445312-11.136718 21.953125-14.558594 30.183594-3.058593 7.359374-2.816406 15.691406.667969 22.855468 3.484375 7.171875 9.890625 12.515625 17.570313 14.65625l16.53125 4.609375c2.023437.566407 3.550781 2.191407 3.984375 4.25l4.367187 20.71875c1.136719 5.394531 3.816406 10.203125 7.558594 13.945313 3.742188 3.742187 8.550781 6.421875 13.945312 7.558594l20.714844 4.371093c2.054688.433594 3.679688 1.960938 4.246094 3.984375l4.609375 16.53125c2.140625 7.6875 7.484375 14.089844 14.652344 17.578125 7.164062 3.484375 15.496093 3.726563 22.851562.667969 8.167969-3.394531 18.710938-8.21875 30.183594-14.539062 1.335937 3.65625 5.820313 12.617187 16.445313 15.898437 8.078124 2.492187 16.578124 1.3125 23.449218-3.613281 55.792969-40.023438 71.257813-84.808594 74.410156-115.332032 2.144532-20.769531-.921874-37.789062-3.640624-47.90625zm-31.96875-152.597656c.722656.101563 2.007812.515625 2.488281 2.144532l3.894531 13.222656c2.441406 8.277344 10.722656 13.617187 19.265625 12.425781l19.695313-2.75c1.960937-.273437 3.890624.375 5.289062 1.777344 1.402344 1.398437 2.046875 3.328125 1.773438 5.289062l-2.746094 19.699219c-1.191406 8.542969 4.144531 16.828125 12.421875 19.269531l13.21875 3.894531c1.632812.480469 2.042969 1.765626 2.144531 2.488282s.054688 2.074218-1.382812 2.980468l-38.613282 24.425782-64.851562-64.863282 24.421875-38.621093c.910156-1.4375 2.257812-1.480469 2.980469-1.382813zm-42.15625 46.4375 72.152343 72.167969c4.84375 4.84375 4.84375 12.726563 0 17.574219s-12.726562 4.847656-17.570312 0l-72.152344-72.167969c-8.296875-8.292969-2.265625-15.308594 0-17.574219 4.84375-4.84375 12.726563-4.84375 17.570313 0zm26.753906 83.101563 11.101562 11.105469c-14.878906 26.863281-43.5 70.023437-85.121094 96.160156-5.496093 3.453125-8.460937.484375-10.417968-2.503906-3.449219-5.261719.714844-9.097657 2.449218-10.1875 40.507813-25.4375 68.503907-69.59375 81.988282-94.574219zm-131.460938 45.574219c-1.089844 1.734374-5.296875 5.757812-10.1875 2.453124-2.953125-2-5.953125-4.925781-2.503906-10.421874 26.289062-41.875 69.863281-70.613282 96.457031-85.308594l11.101563 11.105468c-25.050782 13.488282-69.351563 41.523438-94.867188 82.171876zm99.328125 128.546874c-6.777343 5.03125-16.839843 1.765626-17.949219-7.851562 4.289063-2.675781 8.628907-5.539062 12.960938-8.613281 3.371094-2.398438 4.164062-7.074219 1.765625-10.449219-2.394531-3.371094-7.070313-4.164062-10.445313-1.769531-19.792968 14.066406-39.980468 23.683593-53.425781 29.273437-3.449219 1.433594-7.195312 1.324219-10.550781-.308594-3.363281-1.632812-5.765625-4.519531-6.773438-8.121093l-4.609374-16.535157c-2.070313-7.425781-8.042969-13.03125-15.585938-14.621093l-20.714844-4.367188c-4.984375-1.050781-8.882812-4.953125-9.933594-9.9375l-4.371093-20.71875c-1.589844-7.542969-7.191407-13.519531-14.617188-15.589843l-16.53125-4.609376c-3.601562-1.003906-6.488281-3.410156-8.121093-6.773437-1.632813-3.355469-1.742188-7.101563-.308594-10.550781 9.953125-23.953125 32.273437-68.230469 69.902344-95.640625 29.226562-21.285157 58.519531-29.613281 79.867187-32.710938.777344 2.378907 1.882813 4.671875 3.324219 6.804688-28.15625 15.960937-71.632813 45.664062-98.589844 88.605469-6.769531 10.78125-5.132812 22.054687 6.941406 30.898437 4.78125 3.503906 20.464844 10.242187 31.125-6.992187 24.851563-40.175782 70.539063-67.25 93.265625-79.050782l14.425781 14.425782c-11.804687 22.664062-39.8125 66.691406-78.875 92.964843-17.253906 11.605469-10.3125 26.21875-6.992187 31.132813 7.746094 11.460937 20.117187 13.710937 30.898437 6.945312 42.847657-26.914062 72.492188-70.21875 88.574219-98.59375 2.109375 1.265625 4.355469 2.21875 6.667969 2.863282-3 21.28125-11.246094 50.960937-32.800781 80.566406-5.769531 7.925781-12.636719 15.636718-20.40625 22.921875-3.019531 2.828125-3.433594 7.4375-.171875 10.769531 2.816406 2.875 7.457031 2.9375 10.417968.164062 8.457032-7.925781 15.949219-16.351562 22.273438-25.035156 13.910156-19.105468 22.699219-38.253906 28.222656-55.496094-.03125 3.832032-.242187 7.855469-.703125 12.050782-4.339843 39.644531-27.753906 73.957031-68.15625 103.949218zm0 0"/><path d="m162.472656 166.6875c-7.546875 0-14.488281-4.113281-18.109375-10.738281l-4.875-8.914063c-4.183593-7.652344-10.4375-13.90625-18.085937-18.089844l-8.910156-4.875c-6.625-3.621093-10.738282-10.566406-10.738282-18.113281 0-7.550781 4.113282-14.492187 10.738282-18.117187l8.910156-4.875c7.648437-4.183594 13.902344-10.4375 18.085937-18.089844l4.875-8.914062c3.621094-6.625 10.5625-10.738282 18.109375-10.738282 7.550782 0 14.492188 4.113282 18.113282 10.738282l4.875 8.914062c4.183593 7.652344 10.4375 13.90625 18.082031 18.089844l8.914062 4.875c6.621094 3.621094 10.738281 10.566406 10.738281 18.113281 0 7.550781-4.117187 14.492187-10.738281 18.117187l-8.914062 4.875c-7.648438 4.183594-13.898438 10.4375-18.082031 18.089844l-4.875 8.914063c-3.625 6.625-10.5625 10.738281-18.113282 10.738281zm0-106.480469c-1.007812 0-3.511718.285157-4.964844 2.945313l-4.875 8.914062c-5.558593 10.167969-13.875 18.484375-24.039062 24.046875l-8.914062 4.875c-2.65625 1.453125-2.945313 3.957031-2.945313 4.964844s.289063 3.511719 2.945313 4.96875l8.914062 4.875c10.164062 5.5625 18.476562 13.875 24.039062 24.042969l4.875 8.917968c1.453126 2.65625 3.957032 2.945313 4.964844 2.945313 1.011719 0 3.515625-.289063 4.96875-2.945313l4.875-8.917968c5.558594-10.167969 13.871094-18.480469 24.039063-24.042969l8.914062-4.875c2.65625-1.457031 2.941407-3.960937 2.941407-4.96875s-.285157-3.511719-2.941407-4.964844l-8.914062-4.875c-10.167969-5.5625-18.480469-13.878906-24.039063-24.046875l-4.875-8.914062c-1.457031-2.660156-3.960937-2.945313-4.96875-2.945313zm0 0"/><path d="m416.449219 354.878906c-5.671875 0-10.882813-3.089844-13.605469-8.066406l-2.96875-5.433594c-2.28125-4.167968-5.6875-7.578125-9.855469-9.855468l-5.433593-2.972657c-4.976563-2.722656-8.066407-7.933593-8.0625-13.605469 0-5.671874 3.089843-10.886718 8.0625-13.609374l5.433593-2.96875c4.167969-2.28125 7.574219-5.691407 9.855469-9.859376l2.96875-5.429687c2.722656-4.976563 7.933594-8.070313 13.605469-8.070313 5.667969 0 10.882812 3.09375 13.601562 8.070313l2.972657 5.429687c2.277343 4.167969 5.6875 7.578126 9.855468 9.859376l5.429688 2.972656c4.976562 2.71875 8.066406 7.933594 8.066406 13.605468 0 5.671876-3.089844 10.886719-8.066406 13.605469l-5.429688 2.972657c-4.167968 2.277343-7.578125 5.6875-9.855468 9.855468l-2.972657 5.433594c-2.71875 4.976562-7.929687 8.066406-13.601562 8.066406zm0-64.882812c-.3125 0-3.429688 5.703125-3.429688 5.703125-3.65625 6.6875-9.125 12.15625-15.8125 15.816406 0 0-5.703125 3.117187-5.703125 3.429687 0 .308594 5.703125 3.429688 5.703125 3.429688 6.6875 3.65625 12.15625 9.125 15.8125 15.816406 0 0 3.121094 5.703125 3.429688 5.703125.308593 0 3.429687-5.703125 3.429687-5.703125 3.65625-6.6875 9.125-12.15625 15.8125-15.816406 0 0 5.703125-3.121094 5.703125-3.429688 0-.3125-5.703125-3.429687-5.703125-3.429687-6.6875-3.660156-12.15625-9.128906-15.8125-15.816406 0 0-3.121094-5.703125-3.429687-5.703125zm0 0"/></svg>