<svg height="512pt" viewBox="-17 0 512 512.001" width="512pt" xmlns="http://www.w3.org/2000/svg"><path d="m340.15625 67.714844c0 13.527344-10.96875 24.496094-24.496094 24.496094s-24.492187-10.96875-24.492187-24.496094 10.964843-24.492188 24.492187-24.492188 24.496094 10.964844 24.496094 24.492188zm0 0" fill="#f7b594"/><path d="m321.574219 67.714844c0-7.78125 3.632812-14.710938 9.289062-19.195313-4.175781-3.3125-9.457031-5.296875-15.203125-5.296875-13.527344 0-24.492187 10.964844-24.492187 24.492188s10.964843 24.496094 24.492187 24.496094c5.746094 0 11.027344-1.984376 15.203125-5.296876-5.65625-4.488281-9.289062-11.417968-9.289062-19.199218zm0 0" fill="#f0a479"/><path d="m186.722656 67.714844c0 13.527344-10.964844 24.496094-24.492187 24.496094-13.527344 0-24.496094-10.96875-24.496094-24.496094s10.96875-24.492188 24.496094-24.492188c13.527343 0 24.492187 10.964844 24.492187 24.492188zm0 0" fill="#f7b594"/><path d="m168.140625 67.714844c0-7.78125 3.632813-14.710938 9.292969-19.195313-4.179688-3.3125-9.457032-5.296875-15.203125-5.296875-13.527344 0-24.496094 10.964844-24.496094 24.492188s10.96875 24.496094 24.496094 24.496094c5.746093 0 11.023437-1.984376 15.203125-5.296876-5.660156-4.488281-9.292969-11.417968-9.292969-19.199218zm0 0" fill="#f0a479"/><path d="m315.660156 92.210938c-10.652344 0-22.371094 3.972656-29.777344 10.507812 2.074219 5.621094 3.207032 11.699219 3.207032 18.039062v49.417969c0 3.851563-3.121094 6.972657-6.96875 6.972657h69.929687c3.101563 0 5.617188-2.515626 5.617188-5.617188v-37.316406c0-23.199219-18.808594-42.003906-42.007813-42.003906zm0 0" fill="#00aaf0"/><path d="m282.121094 177.144531h38.304687c.433594-2.257812.667969-4.585937.667969-6.96875v-49.417969c0-10.03125-1.816406-19.644531-5.121094-28.539062-.105468 0-.207031-.007812-.3125-.007812-10.652344 0-22.371094 3.972656-29.777344 10.507812 2.074219 5.621094 3.207032 11.699219 3.207032 18.039062v49.417969c0 3.847657-3.121094 6.96875-6.96875 6.96875zm0 0" fill="#059adb"/><path d="m188.800781 170.175781v-49.417969c0-6.34375 1.132813-12.417968 3.207031-18.039062-7.40625-6.535156-19.125-10.507812-29.78125-10.507812-23.199218 0-42.003906 18.804687-42.003906 42.003906v37.316406c0 3.101562 2.511719 5.613281 5.613282 5.613281h69.933593c-3.851562 0-6.96875-3.121093-6.96875-6.96875zm0 0" fill="#ffc850"/><path d="m150.222656 171.53125v-37.316406c0-18.082032 11.429688-33.496094 27.460938-39.414063-5.003906-1.667969-10.351563-2.589843-15.457032-2.589843-23.199218 0-42.003906 18.804687-42.003906 42.003906v37.316406c0 3.101562 2.511719 5.617188 5.613282 5.617188h30.003906c-3.101563-.003907-5.617188-2.515626-5.617188-5.617188zm0 0" fill="#feb644"/><path d="m269.351562 38.207031c0 16.792969-13.613281 30.40625-30.40625 30.40625-16.792968 0-30.40625-13.613281-30.40625-30.40625 0-16.796875 13.613282-30.410156 30.40625-30.410156 16.792969 0 30.40625 13.613281 30.40625 30.410156zm0 0" fill="#f7b594"/><path d="m238.945312 38.203125c0-11.25 6.117188-21.070313 15.203126-26.328125-4.472657-2.589844-9.664063-4.078125-15.203126-4.078125-16.792968 0-30.40625 13.613281-30.40625 30.40625s13.613282 30.40625 30.40625 30.40625c5.539063 0 10.730469-1.488281 15.203126-4.078125-9.085938-5.253906-15.203126-15.074219-15.203126-26.328125zm0 0" fill="#f0a479"/><path d="m238.945312 68.613281c-28.800781 0-52.148437 23.34375-52.148437 52.144531v49.417969c0 3.851563 3.121094 6.96875 6.972656 6.96875h90.351563c3.847656 0 6.96875-3.117187 6.96875-6.96875v-49.417969c0-28.800781-23.347656-52.144531-52.144532-52.144531zm0 0" fill="#d665d3"/><path d="m216.800781 170.175781v-49.417969c0-23.582031 15.660157-43.5 37.144531-49.945312-4.75-1.425781-9.785156-2.203125-15-2.203125-28.800781 0-52.148437 23.347656-52.148437 52.148437v49.417969c0 3.847657 3.121094 6.96875 6.972656 6.96875h30c-3.847656 0-6.96875-3.121093-6.96875-6.96875zm0 0" fill="#c64ac6"/><path d="m414.839844 205.824219c.847656 2.292969 1.035156 4.738281.578125 7.097656l5.945312-6.558594c2.265625-2.496093 3.511719-5.695312 3.511719-9.003906v-74.265625c0-4.535156 1.34375-8.765625 3.667969-12.351562-6.453125-5.691407-15.890625-7.855469-24.726563-4.847657-12.722656 4.332031-19.375 17.734375-14.859375 29.941407zm0 0" fill="#f0a479"/><path d="m414.207031 135.835938c-3.949219-10.6875.65625-22.292969 10.398438-27.921876-6.046875-3.496093-13.613281-4.460937-20.789063-2.019531-12.71875 4.332031-19.375 17.734375-14.859375 29.941407l25.882813 69.988281c.847656 2.292969 1.035156 4.738281.578125 7.097656l5.945312-6.558594c2.265625-2.496093 3.511719-5.695312 3.511719-9.003906v-32.675781zm0 0" fill="#e5966e"/><path d="m400.199219 314.847656 55.207031-75.957031c9.644531-12.921875 14.855469-28.613281 14.855469-44.738281v-70.53125c0-13.148438-10.757813-24.222656-23.902344-23.976563-12.742187.242188-22.996094 10.648438-22.996094 23.445313v74.269531c0 3.308594-1.195312 6.507813-3.367187 9.003906l-26.839844 30.84375c-.628906.722657-1.8125.070313-1.515625-.835937 3.0625-9.308594.660156-19.960938-6.996094-27.03125-10.199219-9.414063-26.773437-8.582032-36.421875 1.390625l-72.929687 75.394531c-8.292969 8.570312-12.925781 20.027344-12.925781 31.953125v73.222656h110.484374c2.027344-26.800781 11.457032-54.59375 27.347657-76.453125zm0 0" fill="#f7b594"/><path d="m292.367188 391.300781v-73.222656c0-11.921875 4.636718-23.378906 12.925781-31.949219l72.929687-75.394531c1.226563-1.269531 2.566406-2.386719 3.988282-3.355469-10.246094-7.269531-25.074219-5.863281-33.988282 3.355469l-72.929687 75.394531c-8.292969 8.570313-12.925781 20.027344-12.925781 31.949219v73.222656h110.484374zm0 0" fill="#f0a479"/><path d="m63.046875 205.824219c-.84375 2.292969-1.03125 4.738281-.574219 7.097656l-5.949218-6.558594c-2.261719-2.496093-3.507813-5.695312-3.507813-9.003906v-74.265625c0-4.535156-1.347656-8.765625-3.667969-12.351562 6.453125-5.691407 15.890625-7.855469 24.726563-4.847657 12.71875 4.332031 19.375 17.734375 14.859375 29.941407zm0 0" fill="#f0a479"/><path d="m74.074219 105.890625c-8.835938-3.007813-18.273438-.839844-24.726563 4.851563 2.320313 3.585937 3.664063 7.816406 3.664063 12.347656v74.269531c0 3.308594 1.25 6.507813 3.511719 9.003906l5.949218 6.558594c-.457031-2.359375-.269531-4.808594.574219-7.097656l10.464844-28.296875v-54.4375c0-2.578125-.433594-5.058594-1.234375-7.378906-1.21875-3.515626.421875-7.449219 3.820312-8.964844.023438-.011719.046875-.023438.070313-.03125-.679688-.300782-1.375-.578125-2.09375-.824219zm0 0" fill="#e5966e"/><path d="m77.691406 314.847656-55.207031-75.957031c-9.644531-12.921875-14.855469-28.613281-14.855469-44.738281v-70.53125c0-13.148438 10.757813-24.222656 23.902344-23.976563 12.738281.242188 22.996094 10.648438 22.996094 23.445313v74.269531c0 3.308594 1.195312 6.507813 3.367187 9.003906l26.839844 30.84375c.625.722657 1.8125.070313 1.515625-.835937-3.066406-9.308594-.664062-19.960938 6.996094-27.03125 10.195312-9.414063 26.773437-8.582032 36.421875 1.390625l72.929687 75.394531c8.292969 8.570312 12.925782 20.027344 12.925782 31.953125v73.222656h-110.484376c-2.027343-26.800781-11.457031-54.59375-27.347656-76.453125zm0 0" fill="#f7b594"/><path d="m107.695312 314.847656-55.210937-75.957031c-9.644531-12.921875-14.855469-28.613281-14.855469-44.738281v-70.53125c0-7.328125 3.34375-14.007813 8.578125-18.445313-3.976562-3.363281-9.089843-5.425781-14.675781-5.53125-13.144531-.25-23.902344 10.828125-23.902344 23.972657v70.535156c0 16.125 5.210938 31.816406 14.855469 44.738281l55.207031 75.957031c15.890625 21.859375 25.320313 49.652344 27.347656 76.453125h30c-2.027343-26.800781-11.457031-54.59375-27.34375-76.453125zm0 0" fill="#f0a479"/><path d="m238.964844 426.761719v67.449219c0 5.847656-4.738282 10.585937-10.585938 10.585937h-134.101562c-5.847656 0-10.585938-4.742187-10.585938-10.585937v-67.449219zm0 0" fill="#00aaf0"/><path d="m113.691406 494.210938v-67.449219h-30v67.449219c0 5.847656 4.738282 10.585937 10.585938 10.585937h30c-5.84375 0-10.585938-4.742187-10.585938-10.585937zm0 0" fill="#059adb"/><path d="m94.277344 389.300781h134.101562c5.847656 0 10.585938 4.742188 10.585938 10.589844v28.871094h-155.273438v-28.871094c0-5.847656 4.738282-10.589844 10.585938-10.589844zm0 0" fill="#e4eaf8"/><path d="m124.277344 389.300781h-30c-5.847656 0-10.585938 4.742188-10.585938 10.589844v28.871094h30v-28.871094c0-5.847656 4.742188-10.589844 10.585938-10.589844zm0 0" fill="#d8dce5"/><path d="m394.199219 426.761719v67.449219c0 5.847656-4.738281 10.585937-10.585938 10.585937h-134.101562c-5.847657 0-10.585938-4.742187-10.585938-10.585937v-67.449219zm0 0" fill="#00aaf0"/><path d="m268.925781 494.210938v-67.449219h-30v67.449219c0 5.847656 4.738281 10.585937 10.585938 10.585937h30c-5.84375 0-10.585938-4.742187-10.585938-10.585937zm0 0" fill="#059adb"/><path d="m249.511719 389.300781h134.101562c5.847657 0 10.585938 4.742188 10.585938 10.589844v28.871094h-155.273438v-28.871094c0-5.847656 4.738281-10.589844 10.585938-10.589844zm0 0" fill="#e4eaf8"/><path d="m279.511719 389.300781h-30c-5.847657 0-10.585938 4.742188-10.585938 10.589844v28.871094h30v-28.871094c0-5.847656 4.742188-10.589844 10.585938-10.589844zm0 0" fill="#d8dce5"/><path d="m446.734375 91.839844c-8.25 0-15.75 3.25-21.300781 8.527344-7.566406-4.027344-16.554688-4.792969-24.867188-1.84375-16.121094 5.71875-24.539062 23.394531-18.816406 39.515624 26.542969 74.796876 25.066406 70.347657 25.164062 71.535157l-7.882812 9.0625c-1.695312-5.839844-4.976562-11.109375-9.597656-15.304688-13.398438-12.15625-33.742188-11.496093-46.316406 1.507813l-73.300782 75.773437c-9.691406 10.023438-15.03125 23.222657-15.03125 37.164063v63.726562h-5.355468c-3.957032 0-7.605469 1.292969-10.585938 3.453125-2.980469-2.160156-6.632812-3.453125-10.589844-3.453125h-5.355468v-63.726562c0-13.941406-5.335938-27.144532-15.03125-37.164063l-73.296876-75.773437c-12.578124-13.003906-32.921874-13.664063-46.320312-1.507813-4.621094 4.191407-7.898438 9.464844-9.597656 15.304688l-7.882813-9.058594c.042969-.527344.152344-1.046875.328125-1.542969l24.835938-69.992187c9.476562-26.707031-18.992188-50.820313-43.683594-37.675781-19.621094-18.644532-52.25-4.726563-52.25 22.425781v71.0625c0 17.621093 5.808594 35.105469 16.292969 49.148437l55.207031 75.957032c13.445312 18.5 22.019531 39.976562 25.066406 62.542968h-2.414062c-9.972656 0-18.085938 8.113282-18.085938 18.089844v94.320312c0 9.972657 8.113282 18.085938 18.085938 18.085938h134.105468c3.953126 0 7.605469-1.289062 10.585938-3.453125 2.980469 2.164063 6.628906 3.453125 10.585938 3.453125h134.105468c9.972656 0 18.085938-8.113281 18.085938-18.085938v-9.929687c0-4.144531-3.355469-7.5-7.5-7.5-4.144532 0-7.5 3.355469-7.5 7.5v9.929687c0 1.699219-1.386719 3.085938-3.085938 3.085938h-134.105468c-1.703126 0-3.089844-1.386719-3.089844-3.085938v-57.949218h140.277344v13.015625c0 4.144531 3.359374 7.503906 7.503906 7.503906 4.140625 0 7.5-3.359375 7.5-7.503906 0-10.210938 0-39.167969 0-49.386719 0-9.976562-8.113282-18.089844-18.089844-18.089844h-2.414062c3.046874-22.566406 11.621093-44.046875 25.066406-62.542968l55.152344-75.878907c10.539062-14.121093 16.347656-31.605469 16.347656-49.226562v-71.0625c0-17.070313-13.886719-30.953125-30.949219-30.953125zm-364.9375 41.183594-19.898437 56.070312v-66.304688c0-3.308593-.542969-6.621093-1.554688-9.699218 12.621094-5.5625 26.160156 6.664062 21.453125 19.933594zm1.835937 177.117187-55.265624-76.035156c-8.621094-11.546875-13.367188-25.84375-13.367188-40.25v-71.066407c0-8.792968 7.15625-15.949218 15.949219-15.949218 8.808593 0 15.949219 7.183594 15.949219 15.949218v74.269532c0 5.285156 2.023437 10.261718 5.210937 13.929687 50.5 58.035157 19.082031 23.414063 76.582031 85.59375 2.8125 3.042969 7.558594 3.226563 10.597656.414063 3.042969-2.8125 3.230469-7.558594.417969-10.597656-41.699219-45.09375-32.90625-35.410157-44.90625-49.199219-4.195312-7.179688-3.089843-16.75 3.527344-22.757813 7.363281-6.679687 18.546875-6.316406 25.457031.828125l73.296875 75.773438c6.976563 7.210937 10.816407 16.703125 10.816407 26.734375v63.726562h-96.191407c-3.128906-25.761718-12.765625-50.300781-28.074219-71.363281zm147.707032 183.769531c0 1.703125-1.382813 3.089844-3.085938 3.089844h-134.101562c-1.703125 0-3.085938-1.386719-3.085938-3.089844v-57.945312h140.273438zm0-72.945312h-140.273438v-21.375c0-1.699219 1.382813-3.085938 3.085938-3.085938h134.101562c1.703125 0 3.085938 1.386719 3.085938 3.085938zm164.546875-287.941406c-2.949219-8.304688 1.390625-17.414063 9.699219-20.363282 3.859374-1.367187 8.046874-1.203125 11.753906.433594-1.015625 3.085938-1.558594 6.414062-1.558594 9.699219v66.300781zm-12.355469 263.480468c1.703125 0 3.085938 1.386719 3.085938 3.085938v21.375h-140.277344v-21.375c0-1.699219 1.386718-3.085938 3.089844-3.085938zm79.152344-202.648437c0 14.40625-4.75 28.703125-13.425782 40.328125l-55.207031 75.957031c-15.308593 21.058594-24.945312 45.601563-28.074219 71.363281h-96.191406v-63.726562c0-10.027344 3.839844-19.523438 10.8125-26.734375l73.300782-75.773438c6.910156-7.148437 18.09375-7.511719 25.453124-.828125 6.632813 6.015625 7.71875 15.589844 3.53125 22.753906-12.011718 13.804688-3.207031 4.105469-44.90625 49.203126-2.8125 3.039062-2.625 7.785156.414063 10.597656s7.785156 2.628906 10.601563-.414063c58.230468-62.976562 28.695312-30.5625 75.101562-83.894531 1.703125-1.957031 6.691406-6.90625 6.691406-15.628906v-74.269532c0-8.792968 7.164063-15.949218 15.949219-15.949218 8.792969 0 15.945313 7.15625 15.945313 15.949218v71.066407zm0 0"/><path d="m255.535156 169.347656c-4.140625 0-7.5 3.355469-7.5 7.5 0 4.144532 3.359375 7.5 7.5 7.5h96.414063c7.230469 0 13.113281-5.882812 13.113281-13.113281v-37.316406c0-19.117188-10.902344-35.730469-26.808594-43.972657 5.742188-5.789062 9.296875-13.75 9.296875-22.527343 0-17.640625-14.351562-31.992188-31.996093-31.992188-17.640626 0-31.992188 14.351563-31.992188 31.992188 0 8.777343 3.554688 16.734375 9.292969 22.523437-.714844.371094-1.425781.757813-2.125 1.164063-6.132813-10.800781-15.535157-19.507813-26.859375-24.765625 7.886718-6.953125 12.878906-17.117188 12.878906-28.433594 0-20.902344-17.003906-37.90625-37.910156-37.90625-20.902344 0-37.90625 17.003906-37.90625 37.90625 0 11.316406 4.988281 21.480469 12.875 28.433594-11.324219 5.257812-20.722656 13.964844-26.859375 24.765625-.699219-.40625-1.40625-.796875-2.125-1.164063 5.742187-5.789062 9.296875-13.746094 9.296875-22.523437 0-17.640625-14.355469-31.992188-31.996094-31.992188s-31.996094 14.351563-31.996094 31.992188c0 8.777343 3.558594 16.738281 9.300782 22.527343-15.90625 8.242188-26.808594 24.855469-26.808594 43.972657v37.316406c0 7.230469 5.882812 13.113281 13.113281 13.113281h94.800781c4.140625 0 7.5-3.359375 7.5-7.5 0-4.144531-3.359375-7.5-7.5-7.5h-26.339844v-48.890625c0-24.480469 19.898438-44.644531 44.644532-44.644531 24.664062 0 44.648437 20.082031 44.648437 44.644531v48.890625zm60.019532-118.921875c9.371093 0 16.996093 7.621094 16.996093 16.992188 0 9.371093-7.625 16.996093-16.996093 16.996093-9.367188 0-16.992188-7.625-16.992188-16.996093 0-9.371094 7.625-16.992188 16.992188-16.992188zm34.507812 83.492188v35.429687h-51.574219v-48.886718c0-5.328126-.734375-10.601563-1.984375-15.300782 22.902344-15.199218 53.558594 1.347656 53.558594 28.757813zm-187.9375-83.492188c9.371094 0 16.992188 7.621094 16.992188 16.992188 0 9.371093-7.621094 16.996093-16.992188 16.996093s-16.992188-7.625-16.992188-16.996093c0-9.371094 7.621094-16.992188 16.992188-16.992188zm17.070312 70.035157v48.886718h-51.574218v-35.429687c0-27.402344 30.652344-43.957031 53.558594-28.757813-1.242188 4.664063-1.984376 9.972656-1.984376 15.300782zm59.644532-59.644532c-12.628906 0-22.90625-10.277344-22.90625-22.90625 0-12.632812 10.277344-22.910156 22.90625-22.910156 12.632812 0 22.90625 10.277344 22.90625 22.90625 0 12.632812-10.273438 22.910156-22.90625 22.910156zm0 0"/></svg>