<?xml version="1.0" encoding="iso-8859-1"?>
<!-- Generator: Adobe Illustrator 19.0.0, SVG Export Plug-In . SVG Version: 6.00 Build 0)  -->
<svg version="1.1" id="Layer_1" xmlns="http://www.w3.org/2000/svg" xmlns:xlink="http://www.w3.org/1999/xlink" x="0px" y="0px"
	 viewBox="0 0 512 512" style="enable-background:new 0 0 512 512;" xml:space="preserve">
<path style="fill:#E2E2E2;" d="M256,480c123.52,0,224-100.48,224-224S379.52,32,256,32S32,132.48,32,256S132.48,480,256,480z
	 M304.464,365.216L107.968,323.92l6.592-31.312l196.496,41.296L304.464,365.216z M275.344,138.848
	c24.608,0,44.56,19.952,44.56,44.56s-19.952,44.56-44.56,44.56s-44.56-19.952-44.56-44.56S250.736,138.848,275.344,138.848z
	 M140.8,138.848c24.608,0,44.56,19.952,44.56,44.56s-19.952,44.56-44.56,44.56s-44.56-19.952-44.56-44.56
	C96.24,158.8,116.192,138.848,140.8,138.848z"/>
<g>
	<path style="fill:#333333;" d="M256,512c141.392,0,256-114.608,256-256S397.392,0,256,0S0,114.608,0,256S114.608,512,256,512z
		 M256,32c123.52,0,224,100.48,224,224S379.52,480,256,480S32,379.52,32,256S132.48,32,256,32z"/>
	<circle style="fill:#333333;" cx="275.344" cy="183.408" r="44.56"/>
	<circle style="fill:#333333;" cx="140.8" cy="183.408" r="44.56"/>
	
		<rect x="193.532" y="228.384" transform="matrix(-0.2057 0.9786 -0.9786 -0.2057 574.3848 191.3631)" style="fill:#333333;" width="32" height="200.797"/>
</g>
<g>
</g>
<g>
</g>
<g>
</g>
<g>
</g>
<g>
</g>
<g>
</g>
<g>
</g>
<g>
</g>
<g>
</g>
<g>
</g>
<g>
</g>
<g>
</g>
<g>
</g>
<g>
</g>
<g>
</g>
</svg>
